HIERARCHY
ROOT Hips
{
	OFFSET -0.179506 -22.333345 2.821913
	CHANNELS 6 Xposition Yposition Zposition Zrotation Yrotation Xrotation 
	JOINT LeftUpLeg
	{
		OFFSET 6.951974 -9.140623 -0.681533
		CHANNELS 3 Zrotation Yrotation Xrotation
		JOINT LeftLeg
		{
			OFFSET 3.427654 -37.519855 -0.449580
			CHANNELS 3 Zrotation Yrotation Xrotation
			JOINT LeftFoot
			{
				OFFSET -1.359570 -39.796059 -4.369333
				CHANNELS 3 Zrotation Yrotation Xrotation
				JOINT LeftToe
				{
					OFFSET 2.635814 -5.579078 11.928840
					CHANNELS 3 Zrotation Yrotation Xrotation
					End Site
					{
						OFFSET 0.000000 0.000000 0.000000
					}
				}
			}
		}
	}
	JOINT RightUpLeg
	{
		OFFSET -6.767048 -9.052170 -0.431982
		CHANNELS 3 Zrotation Yrotation Xrotation
		JOINT RightLeg
		{
			OFFSET -3.829005 -38.256897 -0.885003
			CHANNELS 3 Zrotation Yrotation Xrotation
			JOINT RightFoot
			{
				OFFSET 1.577377 -39.841461 -4.231180
				CHANNELS 3 Zrotation Yrotation Xrotation
				JOINT RightToe
				{
					OFFSET -2.537174 -4.814398 12.334795
					CHANNELS 3 Zrotation Yrotation Xrotation
					End Site
					{
						OFFSET 0.000000 0.000000 0.000000
					}
				}
			}
		}
	}
	JOINT Spine
	{
		OFFSET -0.253288 10.896323 -2.669631
		CHANNELS 3 Zrotation Yrotation Xrotation
		JOINT Spine1
		{
			OFFSET 0.548704 13.518043 0.109247
			CHANNELS 3 Zrotation Yrotation Xrotation
			JOINT Spine2
			{
				OFFSET 0.145701 5.292222 2.542457
				CHANNELS 3 Zrotation Yrotation Xrotation
				JOINT Neck
				{
					OFFSET -0.277840 21.387037 -4.285703
					CHANNELS 3 Zrotation Yrotation Xrotation
					JOINT Head
					{
						OFFSET 0.515184 6.496960 5.134897
						CHANNELS 3 Zrotation Yrotation Xrotation
						End Site
						{
							OFFSET 0.000000 0.000000 0.000000
						}
					}
				}
				JOINT LeftShoulder
				{
					OFFSET 7.884473 12.174932 -3.408961
					CHANNELS 3 Zrotation Yrotation Xrotation
					JOINT LeftArm
					{
						OFFSET 9.097692 3.046888 -0.886815
						CHANNELS 3 Zrotation Yrotation Xrotation
						JOINT LeftForeArm
						{
							OFFSET 25.961220 -1.277207 -2.745643
							CHANNELS 3 Zrotation Yrotation Xrotation
							JOINT LeftHand
							{
								OFFSET 24.923361 0.898606 -0.117091
								CHANNELS 3 Zrotation Yrotation Xrotation
								End Site
								{
									OFFSET 0.000000 0.000000 0.000000
								}
							}
						}
					}
				}
				JOINT RightShoulder
				{
					OFFSET -8.175920 11.883285 -3.861528
					CHANNELS 3 Zrotation Yrotation Xrotation
					JOINT RightArm
					{
						OFFSET -9.601238 3.255117 -0.914307
						CHANNELS 3 Zrotation Yrotation Xrotation
						JOINT RightForeArm
						{
							OFFSET -25.374195 -1.332924 -2.140099
							CHANNELS 3 Zrotation Yrotation Xrotation
							JOINT RightHand
							{
								OFFSET -25.529810 0.777228 -0.555919
								CHANNELS 3 Zrotation Yrotation Xrotation
								End Site
								{
									OFFSET 0.000000 0.000000 0.000000
								}
							}
						}
					}
				}
			}
		}
	}
}
MOTION
Frames: 6
Frame Time: 0.033333
-25.716599 23.629976 96.350990 175.064789 0.355974 89.018637 -1.906322 1.504312 4.926049 1.994829 -7.097162 -5.774249 0.816696 8.707829 -1.701914 nan nan nan 1.720289 -1.241441 1.363363 0.085777 1.921057 -1.647027 5.171837 -5.850200 -0.856041 nan nan nan -0.450237 1.428422 3.115367 2.232403 -2.942118 1.702496 1.106750 -0.249159 -2.750860 -2.370880 -2.409261 -3.339730 2.953987 -1.075106 -3.798217 -21.688569 -1.488481 -0.255262 -60.864198 -3.277014 18.317790 -0.709245 -19.441083 7.371447 -5.853125 -8.862321 0.653702 22.578581 6.046647 0.685898 57.043579 4.626707 17.312930 -4.415156 21.579216 2.356362 9.216479 7.515332 -1.073361 
-25.716738 23.635067 96.347527 175.115062 0.387249 89.044290 -1.828956 1.481636 4.940392 1.947492 -7.095251 -5.843527 0.722025 8.698292 -1.657805 nan nan nan 1.796493 -1.203542 1.367216 0.040306 1.934247 -1.655501 5.136715 -5.869631 -0.920318 nan nan nan -0.336513 1.416644 3.095754 2.177563 -2.944745 1.673769 1.039235 -0.237104 -2.752059 -2.407403 -2.435369 -3.353460 2.966319 -1.097798 -3.711604 -21.852210 -1.521366 -0.164394 -60.640023 -3.262136 18.191066 -0.747172 -19.695263 7.148990 -5.535063 -9.090860 0.435717 22.641841 6.126939 0.732103 56.842260 4.589369 17.303488 -4.193903 21.716122 2.484414 9.131470 7.642271 -1.073869 
-25.733473 23.650980 96.330795 175.256973 0.454753 89.151145 -1.837068 1.350623 4.838128 2.271738 -7.547434 -5.775773 0.569652 8.486506 -1.380608 nan nan nan 1.837688 -1.040290 1.344846 -0.226319 2.066264 -1.687055 5.388223 -5.857967 -0.797538 nan nan nan -0.286793 1.372295 3.061048 2.270901 -2.946364 1.514769 1.067781 -0.264094 -2.557867 -2.562974 -2.493392 -3.416891 2.976949 -1.174145 -4.014277 -21.496356 -1.497430 -0.496330 -61.220913 -3.421952 18.184107 -0.918455 -19.110066 6.458451 -4.875535 -9.396687 -0.087364 22.291881 5.890407 0.371942 56.974513 4.566147 17.411562 -3.813618 21.770593 3.218189 9.289543 7.586483 -0.460287 
-25.742918 23.646212 96.298088 175.364534 0.379025 89.241060 -1.959445 1.277563 4.728851 2.398333 -7.645445 -5.775409 0.504824 8.396355 -1.270892 nan nan nan 1.741433 -0.971239 1.301193 -0.244904 1.983365 -1.766938 5.607960 -6.015787 -0.910441 nan nan nan -0.046116 1.479617 2.980179 2.199302 -2.735454 1.163198 0.996168 -0.074219 -2.102488 -3.093819 -2.450834 -3.397932 2.936688 -1.962350 -4.247958 -21.323479 -1.991621 -0.404090 -61.509505 -3.854060 18.237273 -0.965371 -18.483682 6.400780 -5.162433 -9.752540 -0.138242 21.729378 5.554424 0.085084 57.483086 4.244904 17.550240 -3.926924 22.020741 4.337219 9.470826 7.538898 -0.102664 
-25.814241 23.649952 96.258820 175.416282 0.237992 89.382902 -2.381643 0.315760 4.769794 2.755408 -7.157777 -6.044335 0.635380 8.594262 -1.040562 nan nan nan 1.516195 -0.357549 1.285013 -0.128536 1.122425 -2.006337 5.597918 -6.036515 -0.770203 nan nan nan -0.118826 1.414986 2.820269 1.922651 -2.504234 0.405810 1.459659 -0.520678 -1.077673 -3.727024 -1.749057 -3.094301 3.625297 -2.490211 -5.077519 -20.169618 -1.702813 -0.284853 -63.690992 -5.870361 14.184321 1.451676 -15.335026 -3.691956 -9.879783 -14.894274 -8.840408 20.632209 6.303088 0.385364 58.838338 4.708279 17.343112 -5.251815 21.047461 3.180986 11.705712 9.820790 -1.711638 
-25.997108 23.706045 96.187279 176.014529 0.145793 89.790068 -2.975408 -0.861084 4.330788 3.323119 -7.287700 -5.876376 1.088913 8.907442 -1.169261 nan nan nan 1.168196 -0.276339 1.209436 0.116417 1.121877 -2.513043 5.974312 -6.696970 -0.620273 nan nan nan 0.226351 1.723844 3.107073 1.653260 -2.388818 -1.229614 1.343035 -1.080554 -0.241763 -3.629108 -2.276467 -3.481996 3.566701 -2.378517 -4.858562 -20.274161 -1.330207 -0.456864 -63.844015 -5.746809 14.503938 1.355902 -15.557921 -3.209095 -10.253419 -16.038549 -10.867923 20.042775 4.859865 -0.773011 59.555374 4.340869 17.577323 -5.560661 21.315295 3.778213 12.841521 9.545577 -2.605452 
